<svg width="19" height="19" viewBox="0 0 19 19" fill="none" xmlns="http://www.w3.org/2000/svg">
<path d="M18.9993 14.0817V5.90918L13.9287 9.99561L18.9993 14.0817Z" fill="white"/>
<path d="M16.0485 0.838867H2.95146C1.32154 0.838867 0 2.06045 0 3.56715V3.64708L8.45663 10.4621C8.75785 10.7039 9.12609 10.8231 9.5 10.8235C9.87399 10.8231 10.2429 10.7039 10.5434 10.4621L19 3.64708V3.56715C19 2.06045 17.6785 0.838867 16.0485 0.838867Z" fill="white"/>
<path d="M11.7552 11.7477C11.111 12.2676 10.3025 12.5294 9.49976 12.5288C8.69709 12.5294 7.88929 12.2673 7.2444 11.7477L6.47412 11.127L0.0761719 16.2828C0.375941 17.4961 1.54826 18.4023 2.95122 18.4023H16.0483C17.452 18.4023 18.6236 17.4961 18.9234 16.2828L12.5254 11.127L11.7552 11.7477Z" fill="white"/>
<path d="M0 5.90918V14.0817L5.0707 9.99526L0 5.90918Z" fill="white"/>
</svg>
