<svg width="21" height="19" viewBox="0 0 21 19" fill="none" xmlns="http://www.w3.org/2000/svg">
<path d="M20.6973 8.82798L11.2456 0.280912C11.148 0.191901 11.0319 0.12125 10.9039 0.0730365C10.7759 0.0248228 10.6386 0 10.5 0C10.3614 0 10.2241 0.0248228 10.0961 0.0730365C9.96815 0.12125 9.85199 0.191901 9.75436 0.280912L0.302651 8.82798C0.156929 8.96153 0.0582147 9.13111 0.0189647 9.31534C-0.0202852 9.49957 0.00168755 9.69018 0.0821105 9.86312C0.160896 10.0366 0.294688 10.185 0.466625 10.2898C0.638563 10.3946 0.840952 10.451 1.04829 10.4519H2.09848V17.3845C2.11762 17.8288 2.33059 18.248 2.69077 18.5506C3.05095 18.8532 3.52901 19.0144 4.02032 18.999H6.82433C7.10286 18.999 7.36998 18.8989 7.56693 18.7208C7.76388 18.5427 7.87452 18.3012 7.87452 18.0493V13.3959C7.87452 13.144 7.98517 12.9025 8.18212 12.7244C8.37907 12.5463 8.64619 12.4462 8.92471 12.4462H12.0753C12.3538 12.4462 12.6209 12.5463 12.8179 12.7244C13.0148 12.9025 13.1255 13.144 13.1255 13.3959V18.0493C13.1255 18.3012 13.2361 18.5427 13.4331 18.7208C13.63 18.8989 13.8971 18.999 14.1757 18.999H16.9797C17.471 19.0144 17.949 18.8532 18.3092 18.5506C18.6694 18.248 18.8824 17.8288 18.9015 17.3845V10.4519H19.9517C20.159 10.451 20.3614 10.3946 20.5334 10.2898C20.7053 10.185 20.8391 10.0366 20.9179 9.86312C20.9983 9.69018 21.0203 9.49957 20.981 9.31534C20.9418 9.13111 20.8431 8.96153 20.6973 8.82798Z" fill="white"/>
</svg>
