<svg width="48" height="63" viewBox="0 0 48 63" fill="none" xmlns="http://www.w3.org/2000/svg">
<path d="M4.29152 2.65283C-0.00990021 5.44252 -0.854901 14.1626 0.769076 21.2698C2.03383 26.8044 4.72277 34.2287 9.25699 41.2198C13.5225 47.7966 19.4734 53.6939 24.0111 57.1059C29.838 61.4871 38.1446 64.2719 42.4461 61.4822C44.6211 60.0716 47.8525 56.2175 48 55.526C48 55.526 46.1051 52.6042 45.6892 51.9631L39.3347 42.165C38.8625 41.4369 35.9011 42.1024 34.3967 42.9545C32.3674 44.1043 30.4985 47.1894 30.4985 47.1894C29.1071 47.9934 27.9416 47.1924 25.5065 46.0717C22.5138 44.6947 19.1489 40.4162 16.4709 36.5412C14.0249 32.5157 11.4906 27.6984 11.4539 24.4042C11.4237 21.7239 11.1677 20.3332 12.4692 19.3905C12.4692 19.3905 16.0483 18.9422 17.9257 17.5584C19.3173 16.5323 21.1326 14.0999 20.6604 13.3717L14.3058 3.57376C13.89 2.93258 11.9951 0.0108428 11.9951 0.0108428C11.3034 -0.136491 6.46657 1.24221 4.29152 2.65283Z" fill="black"/>
</svg>
