<svg width="20" height="25" viewBox="0 0 20 25" fill="none" xmlns="http://www.w3.org/2000/svg">
<path d="M1.71382 1.05941C-0.00395365 2.17347 -0.341405 5.65584 0.30713 8.49408C0.812209 10.7043 1.88604 13.6692 3.69678 16.4611C5.4002 19.0876 7.77671 21.4427 9.58882 22.8053C11.9158 24.5549 15.2331 25.667 16.9508 24.5529C17.8194 23.9896 19.1099 22.4505 19.1688 22.1743C19.1688 22.1743 18.4121 21.0075 18.246 20.7515L15.7083 16.8386C15.5197 16.5478 14.3371 16.8136 13.7363 17.1539C12.9259 17.6131 12.1796 18.8451 12.1796 18.8451C11.6239 19.1661 11.1585 18.8463 10.186 18.3987C8.99087 17.8488 7.64712 16.1402 6.57764 14.5927C5.60083 12.9851 4.58877 11.0614 4.57412 9.74583C4.56206 8.67542 4.45982 8.12005 4.97959 7.74359C4.97959 7.74359 6.40889 7.56459 7.15864 7.01195C7.71436 6.60218 8.43931 5.6308 8.25073 5.33997L5.71304 1.42718C5.54697 1.17113 4.79024 0.00433008 4.79024 0.00433008C4.51401 -0.0545078 2.58242 0.496078 1.71382 1.05941Z" fill="black"/>
</svg>
